<svg fill="#2C2C2E" xmlns="http://www.w3.org/2000/svg"  viewBox="0 0 50 50" width="250px" height="250px"><path d="M49.88,11.175c-0.22-1.285-1.246-2.388-2.572-2.798c-4.247-1.524-9.962,4.233-13.024,7.864	c0.123-5.312-1.993-7.514-3.432-8.395c-2.394-1.463-5.587-1.021-8.561,1.191c-2.643,2.033-5.454,5.558-7.667,8.852	c0.108-2.815-0.156-5.735-1.759-7.598c-1.244-1.444-3.31-2.188-5.392-1.944c-2.292,0.269-4.247,1.664-5.377,3.849l-0.131,0.268	c-0.267,0.538-0.567,1.144-0.721,1.828C-0.433,18.8-0.934,32.018,2.764,39.288c1.411,2.774,3.302,4.499,5.687,5.142	c0.721,0.144,1.395,0.211,2.028,0.211c5.527,0,7.917-5.171,10.431-10.611c0.489-1.059,0.986-2.134,1.517-3.204	c0.531,6.2,3.686,8.288,5.205,8.939c2.778,1.187,5.989,0.37,8.145-2.038c1.216-1.195,2.174-3.165,3.5-5.891	c1.223-2.514,2.743-5.642,5.051-9.403c1.164-1.896,2.176-3.383,2.989-4.577C49.303,14.937,50.398,13.329,49.88,11.175z"/></svg>